<svg width="24" height="24" viewBox="0 0 24 24" fill="none" xmlns="http://www.w3.org/2000/svg">
<path d="M14.89 3.45H9.11001C8.71001 3.45 8.39001 3.13 8.39001 2.73C8.39001 2.33 8.71001 2 9.11001 2H14.89C15.29 2 15.61 2.32 15.61 2.72C15.61 3.12 15.29 3.45 14.89 3.45Z" fill="#292D32"/>
<path d="M14 19.97V17.03C14 15.22 15.22 14 17.03 14H19.97C20.2 14 20.42 14.02 20.63 14.06C20.65 13.82 20.67 13.58 20.67 13.33C20.67 8.54002 16.78 4.65002 12 4.65002C7.22002 4.65002 3.33002 8.54002 3.33002 13.33C3.33002 18.11 7.22002 22 12 22C12.85 22 13.66 21.86 14.44 21.64C14.16 21.17 14 20.61 14 19.97ZM12.75 13C12.75 13.41 12.41 13.75 12 13.75C11.59 13.75 11.25 13.41 11.25 13V8.00002C11.25 7.59002 11.59 7.25002 12 7.25002C12.41 7.25002 12.75 7.59002 12.75 8.00002V13Z" fill="#292D32"/>
<path d="M19.97 15H17.04C15.76 15 15 15.76 15 17.03V19.97C15 21.24 15.76 22 17.04 22H19.97C21.24 22 22 21.24 22 19.97V17.03C22 15.76 21.24 15 19.97 15ZM17.92 20.06C17.92 20.38 17.66 20.64 17.33 20.64C17.01 20.64 16.75 20.38 16.75 20.06V16.94C16.75 16.62 17.01 16.36 17.33 16.36C17.66 16.36 17.92 16.62 17.92 16.94V20.06ZM20.25 20.06C20.25 20.38 19.99 20.64 19.67 20.64C19.35 20.64 19.08 20.38 19.08 20.06V16.94C19.08 16.62 19.35 16.36 19.67 16.36C19.99 16.36 20.25 16.62 20.25 16.94V20.06Z" fill="#292D32"/>
</svg>
